<svg xmlns="http://www.w3.org/2000/svg" color="currentColor" viewBox="0 0 1000 1000" xml:space="preserve">
  <path d="M201.8 474.2c-2.7 0-4.8.4-6.4 1.1 2.2-.7 4.6-1.1 7.1-1.1h-.7zm738.9 294.4c.1-1.4.2-2.7.5-4-.3.6-.4 1.8-.5 4zM990 224.8v-.8.8zm-49.3-.1v.2-.9.7z"/>
  <path d="M970.4 964.3c-6.9-51.7-22.1-101.5-45.1-148.3-4.5-9.1-9.3-18.1-14.3-26.9 0 0 0-.1-.1-.1-21.9-37.1-48.7-71.5-80-102.2-6.8-6.7-13.8-13.2-21-19.5-51.4-45.1-110.8-78.5-174.2-98.8 11.5-6.4 22.6-13.5 33.2-21.3 12.1-8.9 23.7-18.9 34.5-29.7 57.1-57.1 88.5-133 88.5-213.8 0-80.8-31.5-156.7-88.5-213.8-56-56-130.2-87.4-209.3-88.5h-7.6c-79.1 1.1-153.3 32.5-209.4 88.5-57.1 57.1-88.5 133-88.5 213.8 0 80.8 31.5 156.7 88.5 213.8 10.9 10.9 22.4 20.8 34.5 29.7 10.6 7.9 21.7 15 33.2 21.3-63.3 20.3-122.7 53.8-174.2 98.8-7.2 6.3-14.2 12.8-21 19.5a498.04 498.04 0 0 0-80.1 102.3c-5 8.8-9.8 17.8-14.3 26.9-23 46.7-38.2 96.6-45.1 148.3-2.2 16.6 9.4 31.8 25.9 34 1.4.2 2.7.3 4.1.3 1.2 0 2.4-.1 3.6-.2 12-2.6 21.6-12.4 23.5-25.2 13.9-95.6 59.5-182.5 125-248.7 78-78.5 183.8-127.9 298.1-128.1h.6c114.1.4 219.7 49.7 297.3 128.1 65.5 66.2 111.1 153.1 125 248.7 1.9 12.8 11.5 22.5 23.4 25.2h.1c1.2.2 2.4.2 3.6.2 1.3 0 2.7-.1 4.1-.3 16.6-2.2 28.2-17.4 26-34zM489.7 545.6h-1.8c-112.8-.8-213.4-79.2-240.9-184.4-.3-1.1-.6-2.3-.9-3.5-4.3-17.4-6.6-35.4-6.6-54s2.3-36.8 6.6-54.5c.3-1.2.6-2.4.9-3.5C274.6 137.9 376.1 52.2 489.7 52.2h1.3c113.6 0 215.1 85.7 242.8 193.5.3 1.2.6 2.3.9 3.5 4.3 17.7 6.6 36 6.6 54.5 0 18.6-2.3 36.6-6.6 54-.3 1.2-.6 2.3-.9 3.5-27.5 105.2-128.1 183.6-240.9 184.4h-3.2z"/>
</svg>
